{"title":"Self Storage 2013 HDRiP XViD UNiQUE","uid":8890399,"size":1510332755,"categoryP":"video","categoryS":"movies","magnet":"?xt=urn:btih:f1d5d28940475736d194a429fe2042356cd0fbac&amp;dn=Self+Storage+2013+HDRiP+XViD+UNiQUE&amp;tr=udp%3A%2F%2Ftracker.openbittorrent.com%3A80&amp;tr=udp%3A%2F%2Fopen.demonii.com%3A1337&amp;tr=udp%3A%2F%2Ftracker.coppersurfer.tk%3A6969&amp;tr=udp%3A%2F%2Fexodus.desync.com%3A6969","seeders":0,"leechers":1,"uploader":"xxxlavalxxx","files":-1,"time":1378569092,"description":" &lt;a href=&quot;\nhttp://www.imdb.com/title/tt2166500/&quot; rel=&quot;nofollow&quot; target=&quot;_NEW&quot;&gt;\nhttp://www.imdb.com/title/tt2166500/&lt;/a&gt;\n\n\n\nJake is the overnight security guard at a highly-secured Self Storage facility in rural Rhode Island. When his friend's party plans fall through, he invites them to his job site to throw a fiesta of his own. There couldn't be a better location: removed, no people, nothing but party... right? Innocent mischief turns a naughty night of fun into an evening of horror. We soon learn that some things were meant to stay under lock and key and certain places were supposed to be left undisturbed. The kids aren't the only ones at the self storage facility who are looking for a night of fun. \n\n\n\nDirector:\n Tom DeNucci \n\nWriter:\n Tom DeNucci \n\nStars:\n Eric Roberts, Michael Berryman, Jonathan Silverman \n\nGenres:\n  Horror \n\nCountry:\n USA \n\nLanguage:\n English \n\n\n\n\nFormat                                   : AVI\n Format/Info                              : Audio Video Interleave\n File size                                : 1.40 GiB\n Duration                                 : 1h 32mn\n Overall bit rate                         : 2 155 Kbps\n Writing application                      : VirtualDubMod 1.5.10.2 (build 2540/release)\n Writing library                          : VirtualDubMod build 2540/release\n\n Video\n ID                                       : 0\n Format                                   : MPEG-4 Visual\n Format profile                           : Advanced Simple@L5\n Format settings, BVOP                    : 2\n Format settings, QPel                    : No\n Format settings, GMC                     : No warppoints\n Format settings, Matrix                  : Default (H.263)\n Muxing mode                              : Packed bitstream\n Codec ID                                 : XVID\n Codec ID/Hint                            : XviD\n Duration                                 : 1h 32mn\n Bit rate                                 : 1 762 Kbps\n Width                                    : 720 pixels\n Height                                   : 400 pixels\n Display aspect ratio                     : 16:9\n Frame rate                               : 23.976 fps\n Color space                              : YUV\n Chroma subsampling                       : 4:2:0\n Bit depth                                : 8 bits\n Scan type                                : Progressive\n Compression mode                         : Lossy\n Bits/(Pixel*Frame)                       : 0.255\n Stream size                              : 1.14 GiB (82%)\n Writing library                          : XviD 64\n\n Audio\n ID                                       : 1\n Format                                   : AC-3\n Format/Info                              : Audio Coding 3\n Mode extension                           : CM (complete main)\n Format settings, Endianness              : Big\n Codec ID                                 : 2000\n Duration                                 : 1h 32mn\n Bit rate mode                            : Constant\n Bit rate                                 : 384 Kbps\n Channel(s)                               : 6 channels\n Channel positions                        : Front: L C R, Side: L R, LFE\n Sampling rate                            : 48.0 KHz\n Bit depth                                : 16 bits\n Compression mode                         : Lossy\n Stream size                              : 255 MiB (18%)\n Alignment                                : Split accross interleaves\n Interleave, duration                     : 42 ms (1.00 video frame)\n Interleave, preload duration             : 500 ms\n\n\n\n &lt;a href=&quot;\nhttp://bayimg.com/eAPLhAaEg&quot; rel=&quot;nofollow&quot; target=&quot;_NEW&quot;&gt;\nhttp://bayimg.com/eAPLhAaEg&lt;/a&gt; &lt;a href=&quot;\nhttp://bayimg.com/Eapljaaeg&quot; rel=&quot;nofollow&quot; target=&quot;_NEW&quot;&gt;\nhttp://bayimg.com/Eapljaaeg&lt;/a&gt;","torrent":{"xt":"urn:btih:f1d5d28940475736d194a429fe2042356cd0fbac","amp;dn":"Self+Storage+2013+HDRiP+XViD+UNiQUE","amp;tr":["udp%3A%2F%2Ftracker.openbittorrent.com%3A80","udp%3A%2F%2Fopen.demonii.com%3A1337","udp%3A%2F%2Ftracker.coppersurfer.tk%3A6969","udp%3A%2F%2Fexodus.desync.com%3A6969"],"infoHash":"f1d5d28940475736d194a429fe2042356cd0fbac","infoHashBuffer":{"type":"Buffer","data":[241,213,210,137,64,71,87,54,209,148,164,41,254,32,66,53,108,208,251,172]},"announce":[],"urlList":[]}}